<svg xmlns="http://www.w3.org/2000/svg">
    <symbol id="logo" viewBox="0 0 78 52">
        <path
            d="M63.0559 15.8815L54.2119 15.8947L27.8012 40.7922H10.0354V23.4593L34.2348 0.848633L17.993 0.899213L0 17.6625V51.1511H34.0283L63.0418 23.5687L63.0559 15.8815Z" />
        <path
            d="M43.9721 0.848633L14.9586 28.4318L14.9453 36.1182L23.7884 36.1049L50.1991 11.2075H67.9649V28.5404L43.7656 51.1511L60.0074 51.1013L78.0004 34.338V0.848633H43.9721Z" />
    </symbol>
    <symbol id="arrow" viewBox="0 0 15 9">
        <path
            d="M8.0853 8.66685L14.7604 1.99166C14.9149 1.83727 15 1.63118 15 1.41142C15 1.19167 14.9149 0.985572 14.7604 0.831183L14.2689 0.339602C13.9487 0.0197263 13.4282 0.0197262 13.1084 0.339602L7.50311 5.94492L1.89157 0.333382C1.73706 0.178993 1.53109 0.0937494 1.31146 0.0937494C1.09158 0.0937494 0.885606 0.178993 0.730973 0.333382L0.239635 0.824963C0.0851249 0.979474 3.76698e-06 1.18545 3.75737e-06 1.4052C3.74777e-06 1.62496 0.0851249 1.83105 0.239635 1.98544L6.9208 8.66685C7.0758 8.82161 7.28275 8.90661 7.50275 8.90612C7.7236 8.90661 7.93042 8.82161 8.0853 8.66685Z" />
    </symbol>
    <symbol id="like" viewBox="0 0 46 46">
        <path
            d="M33.7812 2.69531C31.2851 2.69531 28.9966 3.4863 26.9794 5.04634C25.0456 6.54197 23.758 8.44693 23 9.83214C22.242 8.44684 20.9544 6.54197 19.0206 5.04634C17.0034 3.4863 14.7149 2.69531 12.2188 2.69531C5.25298 2.69531 0 8.39293 0 15.9485C0 24.1112 6.55347 29.696 16.4746 38.1505C18.1593 39.5863 20.0689 41.2138 22.0538 42.9494C22.3154 43.1785 22.6514 43.3047 23 43.3047C23.3486 43.3047 23.6846 43.1785 23.9462 42.9495C25.9312 41.2136 27.8408 39.5862 29.5265 38.1496C39.4465 29.696 46 24.1112 46 15.9485C46 8.39293 40.747 2.69531 33.7812 2.69531Z"
            fill-opacity="0.5" />
    </symbol>
</svg>